<svg width="84" height="75" viewBox="0 0 84 75" fill="none" xmlns="http://www.w3.org/2000/svg">
<path d="M42.0833 75C40.9028 75 39.9132 74.6007 39.1146 73.8021C38.316 73.0035 37.9167 72.0139 37.9167 70.8333C37.9167 70.3472 38.0208 69.8438 38.2292 69.3229C38.4375 68.8021 38.75 68.3333 39.1667 67.9167L58.4375 48.6458L55.4167 45.625L36.25 64.8958C35.8333 65.3125 35.3819 65.625 34.8958 65.8333C34.4097 66.0417 33.8889 66.1458 33.3333 66.1458C32.1528 66.1458 31.1632 65.7465 30.3646 64.9479C29.566 64.1493 29.1667 63.1597 29.1667 61.9792C29.1667 61.2847 29.2708 60.7118 29.4792 60.2604C29.6875 59.809 29.9653 59.4097 30.3125 59.0625L49.5833 39.7917L46.6667 36.875L27.3958 56.0417C26.9792 56.4583 26.5278 56.7708 26.0417 56.9792C25.5556 57.1875 25 57.2917 24.375 57.2917C23.2639 57.2917 22.2917 56.875 21.4583 56.0417C20.625 55.2083 20.2083 54.2361 20.2083 53.125C20.2083 52.5694 20.3125 52.0486 20.5208 51.5625C20.7292 51.0764 21.0417 50.625 21.4583 50.2083L40.7292 30.9375L37.7083 28.0208L18.5417 47.2917C18.1944 47.6389 17.7778 47.9167 17.2917 48.125C16.8056 48.3333 16.2153 48.4375 15.5208 48.4375C14.3403 48.4375 13.3507 48.0382 12.5521 47.2396C11.7535 46.441 11.3542 45.4514 11.3542 44.2708C11.3542 43.7153 11.4583 43.1944 11.6667 42.7083C11.875 42.2222 12.1875 41.7708 12.6042 41.3542L35.8333 18.125L51.4583 33.8542C52.2222 34.6181 53.125 35.2257 54.1667 35.6771C55.2083 36.1285 56.25 36.3542 57.2917 36.3542C59.5139 36.3542 61.4583 35.5729 63.125 34.0104C64.7917 32.4479 65.625 30.4514 65.625 28.0208C65.625 27.0486 65.4514 26.0417 65.1042 25C64.757 23.9583 64.132 22.9861 63.2292 22.0833L44.5833 3.4375C45.7639 2.32639 47.0833 1.47569 48.5417 0.885417C50 0.295139 51.4583 0 52.9167 0C54.7222 0 56.3889 0.295139 57.9167 0.885417C59.4444 1.47569 60.8333 2.39583 62.0833 3.64583L79.6875 21.3542C80.9375 22.6042 81.8576 23.9931 82.4479 25.5208C83.0382 27.0486 83.3333 28.8194 83.3333 30.8333C83.3333 32.2222 83.0208 33.6285 82.3958 35.0521C81.7708 36.4757 80.8681 37.7778 79.6875 38.9583L45 73.75C44.4444 74.3056 43.9583 74.6528 43.5417 74.7917C43.125 74.9306 42.6389 75 42.0833 75ZM6.35417 41.6667L3.64583 38.9583C2.46528 37.8472 1.5625 36.5278 0.9375 35C0.3125 33.4722 0 31.875 0 30.2083C0 28.4028 0.347222 26.7361 1.04167 25.2083C1.73611 23.6806 2.60417 22.3958 3.64583 21.3542L21.25 3.64583C22.3611 2.53472 23.6806 1.64931 25.2083 0.989583C26.7361 0.329861 28.2292 0 29.6875 0C31.5625 0 33.2292 0.260417 34.6875 0.78125C36.1458 1.30208 37.5694 2.25694 38.9583 3.64583L60.3125 25C60.7292 25.4167 61.0417 25.8681 61.25 26.3542C61.4583 26.8403 61.5625 27.3611 61.5625 27.9167C61.5625 29.0278 61.1458 30 60.3125 30.8333C59.4792 31.6667 58.5069 32.0833 57.3958 32.0833C56.7708 32.0833 56.25 31.9965 55.8333 31.8229C55.4167 31.6493 54.9653 31.3194 54.4792 30.8333L35.7292 12.2917L6.35417 41.6667Z" fill="#7D3F94"/>
</svg>
