<svg width="65" height="65" viewBox="0 0 65 65" fill="none" xmlns="http://www.w3.org/2000/svg">
<path d="M35.8396 25.2814L25.9023 17.8015V47.1985L35.8396 39.7186L45.4511 32.5L35.8396 25.2814ZM35.8396 25.2814L25.9023 17.8015V47.1985L35.8396 39.7186L45.4511 32.5L35.8396 25.2814ZM35.8396 25.2814L25.9023 17.8015V47.1985L35.8396 39.7186L45.4511 32.5L35.8396 25.2814ZM29.1604 6.59799V0C22.6115 0.653266 16.6491 3.26633 11.8271 7.21859L16.4536 11.8894C20.0702 9.0804 24.4035 7.18593 29.1604 6.59799ZM11.8596 16.495L7.2005 11.8568C3.25815 16.691 0.651629 22.6683 0 29.2337H6.58145C7.16792 24.4648 9.05764 20.1206 11.8596 16.495ZM6.58145 35.7663H0C0.651629 42.3317 3.25815 48.309 7.2005 53.1432L11.8596 48.4724C9.05764 44.8794 7.16792 40.5352 6.58145 35.7663ZM11.8271 57.7814C16.6491 61.7337 22.6441 64.3467 29.1604 65V58.402C24.4035 57.8141 20.0702 55.9196 16.4536 53.1105L11.8271 57.7814ZM65 32.5C65 49.3543 52.2281 63.2688 35.8396 65V58.402C48.6115 56.7035 58.4837 45.7286 58.4837 32.5C58.4837 19.2714 48.6115 8.29648 35.8396 6.59799V0C52.2281 1.73116 65 15.6457 65 32.5Z" fill="#7D3F98"/>
</svg>
