<svg width="76" height="91" viewBox="0 0 76 91" fill="none" xmlns="http://www.w3.org/2000/svg">
<path fill-rule="evenodd" clip-rule="evenodd" d="M0 9.57895C0 4.28864 4.25329 0 9.5 0H61.75C66.9967 0 71.25 4.28864 71.25 9.57895H19C13.7533 9.57895 9.5 13.8676 9.5 19.1579L9.5 76.6316C4.25329 76.6316 0 72.3429 0 67.0526V9.57895ZM34.8333 80.0526L45.125 91L55.4167 80.0526H69.1389C71.0257 80.0526 72.6409 79.338 73.9846 77.9088C75.3282 76.4795 76 74.7614 76 72.7544V21.6667C76 19.6596 75.3282 17.9415 73.9846 16.5123C72.6409 15.083 71.0257 14.3684 69.1389 14.3684H21.1111C19.2243 14.3684 17.6091 15.083 16.2655 16.5123C14.9218 17.9415 14.25 19.6596 14.25 21.6667V72.7544C14.25 74.7614 14.9218 76.4795 16.2655 77.9088C17.6091 79.338 19.2243 80.0526 21.1111 80.0526H34.8333ZM47.8266 67.7825C46.9975 68.6643 45.9826 69.1053 44.7819 69.1053C43.5813 69.1053 42.5664 68.6643 41.7373 67.7825C40.9083 66.9006 40.4938 65.8211 40.4938 64.5439C40.4938 63.2667 40.9083 62.1871 41.7373 61.3053C42.5664 60.4234 43.5813 59.9825 44.7819 59.9825C45.9826 59.9825 46.9975 60.4234 47.8266 61.3053C48.6556 62.1871 49.0701 63.2667 49.0701 64.5439C49.0701 65.8211 48.6556 66.9006 47.8266 67.7825ZM48.041 55.0561H41.6945C41.6945 53.6573 41.7802 52.4561 41.9517 51.4526C42.1233 50.4491 42.4091 49.4912 42.8094 48.5789C43.2096 47.6667 43.7099 46.8 44.3102 45.9789C44.9106 45.1579 45.6968 44.3216 46.6688 43.4702C48.1553 42.0713 49.2131 40.7942 49.842 39.6386C50.471 38.483 50.7854 37.3883 50.7854 36.3544C50.7854 34.8947 50.2708 33.724 49.2417 32.8421C48.2125 31.9602 46.926 31.5193 45.3823 31.5193C43.7814 31.5193 42.3806 32.0211 41.1799 33.0246C39.9792 34.0281 39.1787 35.3509 38.7785 36.993L33.1181 34.6211C33.9757 31.7018 35.5051 29.4211 37.7064 27.7789C39.9077 26.1368 42.5807 25.3158 45.7253 25.3158C49.2131 25.3158 51.9861 26.3041 54.0444 28.2807C56.1028 30.2573 57.132 32.8573 57.132 36.0807C57.132 37.9053 56.7174 39.5322 55.8884 40.9614C55.0593 42.3906 53.6442 44.1696 51.6431 46.2982C50.8426 47.1497 50.228 47.8643 49.7991 48.4421C49.3703 49.0199 49.013 49.6433 48.7271 50.3123C48.4412 50.9813 48.2554 51.6807 48.1696 52.4105C48.0839 53.1404 48.041 54.0222 48.041 55.0561Z" fill="#7D3F94"/>
</svg>
