<svg width="67" height="84" viewBox="0 0 67 84" fill="none" xmlns="http://www.w3.org/2000/svg">
<path fill-rule="evenodd" clip-rule="evenodd" d="M33.3333 83.3333C23.6806 80.9028 15.7118 75.3646 9.42708 66.7188C3.14236 58.0729 0 48.4722 0 37.9167V12.5L33.3333 0L66.6667 12.5V37.9167C66.6667 48.4722 63.5243 58.0729 57.2396 66.7188C50.9549 75.3646 42.9861 80.9028 33.3333 83.3333ZM50 41.6667C50 50.8714 42.5381 58.3333 33.3333 58.3333C24.1286 58.3333 16.6667 50.8714 16.6667 41.6667C16.6667 32.4619 24.1286 25 33.3333 25C42.5381 25 50 32.4619 50 41.6667ZM25.8828 34.2131L21.2698 39.8217C20.6427 40.5842 20.6975 41.7247 21.3945 42.4181L33.0297 53.9924C33.2632 54.2248 33.6307 54.2248 33.8643 53.9924L45.0851 42.8303C46.0145 41.9058 46.0875 40.3851 45.2514 39.3685L41.0112 34.2131C40.1631 33.182 38.6833 33.037 37.6657 33.8854L33.8245 37.0879C33.6038 37.2719 33.2902 37.2719 33.0695 37.0879L29.2283 33.8854C28.2107 33.037 26.7309 33.182 25.8828 34.2131Z" fill="#7D3F98"/>
</svg>
