<svg width="45" height="50" viewBox="0 0 45 50" fill="none" xmlns="http://www.w3.org/2000/svg">
<path fill-rule="evenodd" clip-rule="evenodd" d="M12.9945 0H28.5879V5.26316H12.9945V0ZM41.5824 28.9474C41.5824 40.5744 32.2739 50 20.7912 50C9.30855 50 0 40.5744 0 28.9474C0 17.3203 9.30855 7.89474 20.7912 7.89474C32.2739 7.89474 41.5824 17.3203 41.5824 28.9474ZM18.8274 30.6711C18.7803 30.6298 18.7343 30.5865 18.6896 30.5412L11.3388 23.0979L15.0142 19.3763L21.8675 26.3158H31.1868V31.5789H20.7912C20.007 31.5789 19.3039 31.2273 18.8274 30.6711ZM40.5508 7.00227L37.7102 7.13172C37.3241 7.14931 37.0383 7.47123 37.0598 7.86455L37.418 14.4301C37.4252 14.5619 37.5333 14.6713 37.6634 14.6786L43.9165 15.0284C44.4345 15.0573 44.8583 14.6716 44.8815 14.1503L44.999 11.5064C45.0225 10.9776 44.6258 10.4982 44.102 10.4226L42.1252 10.1371C42.0116 10.1207 41.9193 10.0273 41.9031 9.91226L41.6212 7.91053C41.5465 7.38021 41.073 6.97847 40.5508 7.00227Z" fill="#7D3F98"/>
</svg>
