<svg id="visual" viewBox="0 0 1920 1080" width="1920" height="1080" xmlns="http://www.w3.org/2000/svg" xmlns:xlink="http://www.w3.org/1999/xlink" version="1.1"><rect x="0" y="0" width="1920" height="1080" fill="#FFF"></rect><path d="M0 706L45.7 729.8C91.3 753.7 182.7 801.3 274.2 838C365.7 874.7 457.3 900.3 548.8 912.3C640.3 924.3 731.7 922.7 823 887.8C914.3 853 1005.7 785 1097 749.2C1188.3 713.3 1279.7 709.7 1371.2 715.8C1462.7 722 1554.3 738 1645.8 733C1737.3 728 1828.7 702 1874.3 689L1920 676L1920 1081L1874.3 1081C1828.7 1081 1737.3 1081 1645.8 1081C1554.3 1081 1462.7 1081 1371.2 1081C1279.7 1081 1188.3 1081 1097 1081C1005.7 1081 914.3 1081 823 1081C731.7 1081 640.3 1081 548.8 1081C457.3 1081 365.7 1081 274.2 1081C182.7 1081 91.3 1081 45.7 1081L0 1081Z" fill="#7D3F94" stroke-linecap="round" stroke-linejoin="miter"></path></svg>