<svg id="visual" viewBox="0 0 1920 1080" width="1920" height="1080" xmlns="http://www.w3.org/2000/svg" xmlns:xlink="http://www.w3.org/1999/xlink" version="1.1"><rect x="0" y="0" width="1920" height="1080" fill="#FFF"></rect><path d="M0 678L80 682.5C160 687 320 696 480 728.3C640 760.7 800 816.3 960 851.2C1120 886 1280 900 1440 882.5C1600 865 1760 816 1840 791.5L1920 767L1920 1081L1840 1081C1760 1081 1600 1081 1440 1081C1280 1081 1120 1081 960 1081C800 1081 640 1081 480 1081C320 1081 160 1081 80 1081L0 1081Z" fill="#7D3F94" stroke-linecap="round" stroke-linejoin="miter"></path></svg>